<?xml version="1.0" encoding="iso-8859-1"?>
<!-- Generator: Adobe Illustrator 19.0.0, SVG Export Plug-In . SVG Version: 6.00 Build 0)  -->
<svg version="1.1" id="Capa_1" xmlns="http://www.w3.org/2000/svg" xmlns:xlink="http://www.w3.org/1999/xlink" x="0px" y="0px"
	 viewBox="0 0 512 512" style="enable-background:new 0 0 512 512;" xml:space="preserve">
<g>
	<path style="fill:#455A64;" d="M117.333,511.085c-5.891,0-10.667-4.776-10.666-10.667c0-1.659,0.387-3.295,1.13-4.778
		l21.333-42.667c2.633-5.272,9.042-7.412,14.315-4.779s7.412,9.042,4.779,14.315l0,0l-21.333,42.667
		C125.085,508.8,121.382,511.089,117.333,511.085z"/>
	<path style="fill:#455A64;" d="M394.667,511.085c-4.037,0-7.728-2.279-9.536-5.888l-21.333-42.667
		c-2.633-5.273-0.494-11.681,4.779-14.315c5.272-2.633,11.681-0.494,14.315,4.779l21.333,42.667
		c2.639,5.267,0.509,11.676-4.758,14.315c-1.483,0.743-3.119,1.13-4.778,1.13L394.667,511.085z"/>
</g>
<path style="fill:#CFD8DC;" d="M488.533,301.997c-2.014-2.686-5.176-4.267-8.533-4.267H32c-5.891,0.01-10.658,4.794-10.648,10.685
	c0.002,0.982,0.139,1.96,0.408,2.904L51.2,414.274c9.248,31.988,38.488,54.042,71.787,54.144h266.069
	c33.282-0.121,62.5-22.171,71.744-54.144l29.397-102.912C491.142,308.152,490.526,304.685,488.533,301.997z"/>
<path style="fill:#ECEFF1;" d="M122.944,425.751c-14.279-0.036-26.821-9.493-30.784-23.211l-13.845-48.512
	c-1.826-5.601,1.234-11.622,6.834-13.448c5.601-1.826,11.622,1.234,13.448,6.834c0.083,0.253,0.156,0.51,0.219,0.768l13.845,48.512
	c1.306,4.584,5.495,7.745,10.261,7.744c5.891,0,10.667,4.776,10.667,10.667c0,5.891-4.776,10.667-10.667,10.667L122.944,425.751z"/>
<path style="fill:#455A64;" d="M458.667,276.418c-5.891,0-10.667-4.776-10.667-10.667v-224c-0.03-10.769-8.785-19.474-19.554-19.443
	c-5.149,0.015-10.084,2.065-13.726,5.705l-33.835,33.899c-4.237,4.093-10.99,3.976-15.083-0.262c-3.993-4.134-3.993-10.687,0-14.821
	l33.835-33.984c15.951-15.941,41.804-15.933,57.745,0.017c7.658,7.663,11.958,18.056,11.951,28.89v224
	C469.333,271.642,464.558,276.418,458.667,276.418z"/>
<path style="fill:#607D8B;" d="M391.552,57.453l-21.333-21.333c-2.419-2.452-5.884-3.568-9.28-2.987l-53.333,8.747
	c-5.811,0.969-9.736,6.464-8.768,12.275c0.356,2.135,1.353,4.111,2.858,5.666l64,65.92c2.004,2.067,4.758,3.237,7.637,3.243
	c1.026-0.005,2.046-0.156,3.029-0.448c3.798-1.118,6.664-4.247,7.445-8.128l10.667-53.333
	C395.168,63.58,394.072,59.971,391.552,57.453z"/>
<g>
	<path style="fill:#2196F3;" d="M224,169.751c-5.891,0.011-10.675-4.757-10.686-10.648c-0.005-2.84,1.123-5.565,3.134-7.571
		l21.333-21.333c4.092-4.237,10.845-4.355,15.083-0.262c4.237,4.092,4.355,10.845,0.262,15.083
		c-0.086,0.089-0.173,0.176-0.262,0.262l-21.333,21.333C229.535,168.617,226.827,169.745,224,169.751z"/>
	<path style="fill:#2196F3;" d="M266.667,212.418c-5.891,0.011-10.675-4.757-10.686-10.648c-0.005-2.84,1.123-5.565,3.134-7.571
		l21.333-21.333c4.092-4.237,10.845-4.355,15.083-0.262c4.237,4.092,4.355,10.845,0.262,15.083
		c-0.086,0.089-0.173,0.176-0.262,0.262l-21.333,21.333C272.202,211.284,269.493,212.412,266.667,212.418z"/>
	<path style="fill:#2196F3;" d="M288,148.418c-5.891,0.011-10.675-4.757-10.686-10.648c-0.005-2.84,1.123-5.565,3.134-7.571
		l21.333-21.333c4.092-4.237,10.845-4.355,15.083-0.262s4.355,10.845,0.262,15.083c-0.086,0.089-0.173,0.176-0.262,0.262
		l-21.333,21.333C293.535,147.284,290.827,148.412,288,148.418z"/>
</g>
<path style="fill:#B0BEC5;" d="M480,255.085H32c-17.673,0-32,14.327-32,32s14.327,32,32,32h448c17.673,0,32-14.327,32-32
	S497.673,255.085,480,255.085z"/>
<path d="M480,319.085H32c-17.673,0-32-14.327-32-32s14.327-32,32-32h448c17.673,0,32,14.327,32,32S497.673,319.085,480,319.085z
	 M32,276.418c-5.891,0-10.667,4.776-10.667,10.667S26.109,297.751,32,297.751h448c5.891,0,10.667-4.776,10.667-10.667
	s-4.776-10.667-10.667-10.667H32z"/>
<path d="M389.056,468.418H122.944c-33.282-0.121-62.5-22.171-71.744-54.144L21.739,311.362c-1.62-5.667,1.661-11.575,7.328-13.195
	c5.667-1.62,11.575,1.661,13.195,7.328l29.397,102.912c6.591,22.827,27.441,38.578,51.2,38.677h266.197
	c23.759-0.1,44.609-15.85,51.2-38.677l29.397-102.912c1.62-5.667,7.527-8.948,13.195-7.328c5.667,1.62,8.948,7.527,7.328,13.195
	L460.8,414.274C451.556,446.247,422.338,468.297,389.056,468.418z"/>
<path d="M122.944,425.751c-14.274-0.051-26.808-9.501-30.784-23.211l-13.867-48.512c-1.62-5.667,1.661-11.575,7.328-13.195
	c5.667-1.62,11.575,1.661,13.195,7.328l13.845,48.512c1.306,4.584,5.495,7.745,10.261,7.744c5.891,0,10.667,4.776,10.667,10.667
	c0,5.891-4.776,10.667-10.667,10.667L122.944,425.751z"/>
<path d="M117.333,511.085c-1.652,0.001-3.282-0.386-4.757-1.131c-5.271-2.63-7.413-9.035-4.783-14.307
	c0.001-0.003,0.003-0.005,0.004-0.008l21.333-42.667c2.633-5.272,9.042-7.412,14.315-4.779s7.412,9.042,4.779,14.315l0,0
	l-21.333,42.667C125.085,508.8,121.382,511.089,117.333,511.085z"/>
<path d="M394.667,511.085c-4.044,0.008-7.745-2.272-9.557-5.888l-21.333-42.667c-2.633-5.273-0.494-11.681,4.779-14.315
	c5.272-2.633,11.681-0.494,14.315,4.779l21.333,42.667c2.634,5.269,0.498,11.676-4.771,14.311c-0.003,0.001-0.005,0.003-0.008,0.004
	C397.947,510.713,396.317,511.093,394.667,511.085z"/>
<path d="M458.667,276.418c-5.891,0-10.667-4.776-10.667-10.667v-224c-0.03-10.769-8.785-19.474-19.554-19.443
	c-5.149,0.015-10.084,2.065-13.726,5.705l-33.835,33.899c-4.237,4.093-10.99,3.976-15.083-0.262c-3.993-4.134-3.993-10.687,0-14.821
	l33.835-33.984c15.951-15.941,41.804-15.933,57.745,0.017c7.658,7.663,11.958,18.056,11.951,28.89v224
	C469.333,271.642,464.558,276.418,458.667,276.418z"/>
<path d="M373.333,129.005c-2.883,0.005-5.646-1.157-7.659-3.221l-64-65.92c-4.106-4.224-4.011-10.977,0.213-15.083
	c1.566-1.522,3.562-2.528,5.718-2.879l53.333-8.747c3.397-0.608,6.875,0.512,9.28,2.987l21.333,21.333
	c2.52,2.518,3.616,6.127,2.923,9.621l-10.667,53.333c-1.014,4.967-5.384,8.534-10.453,8.533L373.333,129.005z M331.2,59.65
	l35.733,36.715l5.568-27.861l-13.419-13.419L331.2,59.65z"/>
<path d="M224,169.751c-5.891,0.011-10.675-4.757-10.686-10.648c-0.005-2.84,1.123-5.565,3.134-7.571l21.333-21.333
	c4.092-4.237,10.845-4.355,15.083-0.262c4.237,4.092,4.355,10.845,0.262,15.083c-0.086,0.089-0.173,0.176-0.262,0.262
	l-21.333,21.333C229.535,168.617,226.827,169.745,224,169.751z"/>
<path d="M266.667,212.418c-5.891,0.011-10.675-4.757-10.686-10.648c-0.005-2.84,1.123-5.565,3.134-7.571l21.333-21.333
	c4.092-4.237,10.845-4.355,15.083-0.262c4.237,4.092,4.355,10.845,0.262,15.083c-0.086,0.089-0.173,0.176-0.262,0.262
	l-21.333,21.333C272.202,211.284,269.493,212.412,266.667,212.418z"/>
<path d="M288,148.418c-5.891,0.011-10.675-4.757-10.686-10.648c-0.005-2.84,1.123-5.565,3.134-7.571l21.333-21.333
	c4.092-4.237,10.845-4.355,15.083-0.262s4.355,10.845,0.262,15.083c-0.086,0.089-0.173,0.176-0.262,0.262l-21.333,21.333
	C293.535,147.284,290.827,148.412,288,148.418z"/>
<g>
</g>
<g>
</g>
<g>
</g>
<g>
</g>
<g>
</g>
<g>
</g>
<g>
</g>
<g>
</g>
<g>
</g>
<g>
</g>
<g>
</g>
<g>
</g>
<g>
</g>
<g>
</g>
<g>
</g>
</svg>
