<?xml version="1.0" encoding="iso-8859-1"?>
<!-- Generator: Adobe Illustrator 19.0.0, SVG Export Plug-In . SVG Version: 6.00 Build 0)  -->
<svg version="1.1" id="Layer_1" xmlns="http://www.w3.org/2000/svg" xmlns:xlink="http://www.w3.org/1999/xlink" x="0px" y="0px"
	 viewBox="0 0 511.999 511.999" style="enable-background:new 0 0 511.999 511.999;" xml:space="preserve">
<path style="fill:#9DD5FF;" d="M232.217,184.169h85.476c46.64,0,61.189,15.265,116.391,61.378
	c8.052,6.726,15.131,14.093,22.283,20.499c38.999,34.897,44.734,36.182,45.481,69.127c0.173,7.456,0.068,23.896,0.022,34.47
	c-0.023,6.011-0.068,12.903-0.068,21.857c0,11.655-10.971,21.279-24.756,22.098l-143.948,0.058h-82.551l-92.053-0.049
	c-10.319-0.566-19.084-6.068-22.879-13.671c-1.3-2.602-2.024-5.451-2.024-8.433V183.896L232.217,184.169z"/>
<path style="fill:#84B8C3;" d="M133.592,245.426v-61.53l98.625,0.273h85.476c46.599,0,61.167,15.24,116.247,61.257L133.592,245.426
	L133.592,245.426z"/>
<path style="fill:#FF2808;" d="M501.848,335.172c0.173,7.456,0.068,23.896,0.022,34.47c-0.023,6.011-0.068,12.903-0.068,21.857
	c0,11.655-10.971,21.279-24.756,22.098l-143.948,0.058h-82.551l-92.053-0.049c-10.319-0.566-19.084-6.068-22.879-13.671
	c-1.3-2.602-2.024-5.45-2.024-8.433V183.896l45.921,0.127c25.16,32.589,106.444,127.672,118.941,127.672h200.409
	C500.902,317.772,501.616,324.946,501.848,335.172z"/>
<path style="fill:#CF0800;" d="M133.592,183.896v107.818c32.1-10.123,55.371-40.054,55.371-75.414
	c0-8.221-1.539-16.827-4.224-25.623c-1.932-2.428-3.686-4.66-5.226-6.655L133.592,183.896z"/>
<path style="opacity:0.62;fill:#9BD1D9;enable-background:new    ;" d="M317.694,184.169h-85.476l-98.625-0.273v43.457
	c6.623-8.155,18.563-14.625,39.574-14.625c13.247,0,31.245,0,50.071,0c35.187,0,96.91,0,112.27,0
	c31.366,0,55.541,6.099,76.793,14.566C373.973,195.323,357.524,184.169,317.694,184.169z"/>
<path style="opacity:0.62;fill:#FF5749;enable-background:new    ;" d="M133.592,183.896v43.457
	c6.623-8.155,18.563-14.625,39.574-14.625c8.318,0,18.511,0,29.604,0c-9.566-11.459-17.755-21.576-23.257-28.705L133.592,183.896z"
	/>
<path style="fill:#FF2808;" d="M188.86,212.729c-0.373-7.13-1.821-14.52-4.121-22.051c-1.931-2.425-3.687-4.66-5.226-6.654
	l-45.921-0.127v43.457c6.623-8.155,18.563-14.625,39.574-14.625C177.855,212.729,183.155,212.729,188.86,212.729z"/>
<path style="fill:#CF0800;" d="M501.847,359.784c-0.022,4.834-0.047,25.112-0.047,31.715c0,11.655-10.971,21.279-24.756,22.098
	l-143.948,0.058h-82.549l-92.053-0.049c-10.319-0.566-19.084-6.068-22.879-13.671c-1.3-2.602-2.024-5.45-2.024-8.433v-31.715
	c0,0,1.141,14.803,24.901,14.803c23.761,0,296.829,0,318.554,0C498.771,374.588,501.847,359.784,501.847,359.784z"/>
<path style="fill:#004356;" d="M477.047,413.654c0,25.345-20.606,45.896-46.026,45.896s-46.026-20.55-46.026-45.896
	c0-25.349,20.606-45.896,46.026-45.896C456.441,367.759,477.047,388.305,477.047,413.654z M204.52,367.759
	c-25.421,0-46.026,20.546-46.026,45.896c0,25.345,20.606,45.896,46.026,45.896s46.026-20.55,46.026-45.896
	C250.547,388.305,229.94,367.759,204.52,367.759z"/>
<g>
	<path style="fill:#00313D;" d="M431.021,413.654c-16.065,0-31.289-3.579-44.925-9.971c-0.714,3.212-1.102,6.545-1.102,9.971
		c0,25.345,20.606,45.896,46.026,45.896s46.026-20.55,46.026-45.896c0-3.425-0.388-6.759-1.102-9.971
		C462.31,410.075,447.086,413.654,431.021,413.654z"/>
	<path style="fill:#00313D;" d="M204.52,413.654c-16.065,0-31.289-3.579-44.925-9.971c-0.714,3.212-1.102,6.545-1.102,9.971
		c0,25.345,20.606,45.896,46.026,45.896s46.026-20.55,46.026-45.896c0-3.425-0.388-6.759-1.102-9.971
		C235.81,410.075,220.585,413.654,204.52,413.654z"/>
</g>
<path style="fill:#84B8C3;" d="M109.658,263.74c-41.502,0-75.146-33.551-75.146-74.938c0-45.307,49.731-103.41,75.146-136.35
	c25.847,33.366,75.146,91.044,75.146,136.35C184.803,230.188,151.162,263.74,109.658,263.74L109.658,263.74z"/>
<path style="fill:#9DD5FF;" d="M109.658,52.45c1.562,2.017,3.212,4.124,4.93,6.311c9.123,19.119,15.054,38.122,15.054,55.639
	c0,51.255-41.421,92.853-92.705,93.337c-1.58-6.049-2.425-12.393-2.425-18.936C34.512,143.493,84.243,85.39,109.658,52.45z"/>
<path style="fill:#FFFFFF;" d="M144.857,187.068c0,19.338-15.79,35.071-35.198,35.071c-5.287,0-9.573-4.261-9.573-9.517
	s4.286-9.517,9.573-9.517c8.851,0,16.051-7.195,16.051-16.036c0-5.256,4.286-9.517,9.573-9.517S144.857,181.812,144.857,187.068z"/>
<path d="M429.031,471.63c-32.075,0-58.172-26.095-58.172-58.17s26.096-58.171,58.172-58.171c26.236,0,48.472,17.457,55.698,41.366
	c1.546-1.566,2.465-3.414,2.465-5.324c0-6.911,0.027-12.597,0.049-17.598l0.034-7.603c0.049-10.23,0.116-24.238-0.034-30.774
	c-0.101-4.505-0.223-8.202-0.54-11.4H296.999c-4.426,0-14.792,0-46.507-31.344c-9.664-9.55-28.872-29.872-32.403-38.433
	c-2.596-6.296,0.401-13.504,6.696-16.102c6.2-2.559,13.284,0.311,15.98,6.41c1.676,3.003,11.704,15.307,26.237,29.765
	c18.305,18.211,28.033,24.105,30.683,25.041h175.161c-3.967-3.802-9.053-8.31-15.588-14.099c-3.395-3.008-7.122-6.311-11.216-9.986
	c-2.976-2.67-5.94-5.503-8.806-8.242c-4.201-4.015-8.546-8.166-13.07-11.956c-3.979-3.335-7.747-6.507-11.333-9.524
	c-45.772-38.541-58.074-48.898-96.672-48.898h-85.131c-6.811,0-12.331-5.52-12.331-12.331c0-6.811,5.52-12.331,12.331-12.331h85.131
	c47.597,0,66.614,16.013,112.556,54.697c3.568,3.003,7.321,6.163,11.283,9.483c5.142,4.306,9.784,8.742,14.272,13.03
	c2.855,2.728,5.553,5.307,8.242,7.719c4.049,3.634,7.739,6.903,11.098,9.88c29.557,26.186,37.501,33.225,38.289,68.06
	c0.158,6.873,0.089,21.08,0.04,31.453l-0.034,7.599c-0.023,4.968-0.049,10.617-0.049,17.485c0,14.746-10.605,27.514-25.556,32.37
	C481.448,450.91,457.614,471.63,429.031,471.63z M429.031,379.951c-18.477,0-33.509,15.032-33.509,33.509
	c0,18.475,15.032,33.507,33.509,33.507c18.418,0,33.413-14.933,33.51-33.328c-0.004-0.153-0.004-0.308-0.001-0.462
	C462.387,394.831,447.415,379.951,429.031,379.951z M203.444,471.63c-28.558,0-52.376-20.685-57.258-47.858
	c-9.88-3.131-18.031-9.725-22.409-18.525c-2.194-4.402-3.306-9.087-3.306-13.917v-82.227c0-6.811,5.52-12.331,12.331-12.331
	s12.331,5.52,12.331,12.331v82.227c0,0.98,0.243,1.963,0.721,2.924c0.419,0.843,1.045,1.699,1.858,2.509
	c7.193-23.964,29.456-41.476,55.731-41.476c27.846,0,51.184,19.667,56.856,45.839h71.202c6.811,0,12.331,5.52,12.331,12.331
	s-5.52,12.331-12.331,12.331h-71.2C254.631,451.964,231.291,471.63,203.444,471.63z M169.934,413.476
	c0.01,18.47,15.038,33.491,33.51,33.491c18.477,0,33.51-15.032,33.51-33.507c0-18.477-15.032-33.509-33.51-33.509
	c-18.441,0-33.451,14.974-33.51,33.4C169.934,413.393,169.934,413.435,169.934,413.476z M429.046,425.791
	c-6.811,0-12.348-5.52-12.348-12.331c0-6.811,5.504-12.331,12.315-12.331h0.032c6.811,0,12.331,5.52,12.331,12.331
	C441.376,420.271,435.857,425.791,429.046,425.791z M203.461,425.791c-6.811,0-12.348-5.52-12.348-12.331
	c0-6.811,5.505-12.331,12.315-12.331h0.032c6.811,0,12.331,5.52,12.331,12.331C215.791,420.271,210.27,425.791,203.461,425.791z
	 M75.124,397.247H47.049c-6.811,0-12.331-5.52-12.331-12.331c0-6.811,5.52-12.331,12.331-12.331h28.076
	c6.811,0,12.331,5.52,12.331,12.331C87.456,391.726,81.936,397.247,75.124,397.247z M75.124,352.956H12.331
	C5.52,352.956,0,347.436,0,340.625c0-6.811,5.52-12.331,12.331-12.331h62.793c6.811,0,12.331,5.52,12.331,12.331
	C87.456,347.436,81.936,352.956,75.124,352.956z M208.706,323.954h-13.874c-6.811,0-12.331-5.52-12.331-12.331
	c0-6.811,5.52-12.331,12.331-12.331h13.874c6.811,0,12.331,5.52,12.331,12.331C221.037,318.434,215.515,323.954,208.706,323.954z
	 M108.963,276.061c-48.068,0-87.174-39.108-87.174-87.178c0-44.855,41.508-97.832,68.975-132.888
	c3.009-3.841,5.845-7.458,8.425-10.815c2.332-3.031,5.938-4.808,9.762-4.812c0.004,0,0.008,0,0.012,0c3.82,0,7.424,1.77,9.76,4.793
	c2.51,3.25,5.246,6.734,8.136,10.415c27.588,35.139,69.279,88.238,69.279,133.306C196.138,236.953,157.031,276.061,108.963,276.061z
	 M108.977,72.739c-25.367,32.384-62.525,80.367-62.525,116.144c0,34.47,28.043,62.515,62.511,62.515
	c34.469,0,62.512-28.044,62.512-62.515C171.476,153.059,134.451,105.198,108.977,72.739z M108.966,225.007
	c-6.811,0-12.331-5.52-12.331-12.331c0-6.811,5.52-12.331,12.331-12.331c7.273,0,13.189-5.916,13.189-13.191
	c0-6.811,5.52-12.331,12.331-12.331s12.331,5.52,12.331,12.331C146.818,208.026,129.838,225.007,108.966,225.007z"/>
<g>
</g>
<g>
</g>
<g>
</g>
<g>
</g>
<g>
</g>
<g>
</g>
<g>
</g>
<g>
</g>
<g>
</g>
<g>
</g>
<g>
</g>
<g>
</g>
<g>
</g>
<g>
</g>
<g>
</g>
</svg>
