<?xml version="1.0" encoding="iso-8859-1"?>
<!-- Generator: Adobe Illustrator 19.0.0, SVG Export Plug-In . SVG Version: 6.00 Build 0)  -->
<svg xmlns="http://www.w3.org/2000/svg" xmlns:xlink="http://www.w3.org/1999/xlink" version="1.1" id="Capa_1" x="0px" y="0px" viewBox="0 0 512 512" style="enable-background:new 0 0 512 512;" xml:space="preserve" width="512px" height="512px">
<g>
	<g>
		<path d="M497,271h-21.164C460.328,215.669,416.96,171.97,362,156.276V135c0-57.897-47.103-105-105-105H117.42    C111.228,12.541,94.555,0,75,0H15C6.716,0,0,6.716,0,15v120c0,8.284,6.716,15,15,15h60c19.555,0,36.228-12.541,42.42-30H257    c8.271,0,15,6.729,15,15v21.276C217.04,171.97,173.673,215.669,158.164,271H137c-8.284,0-15,6.716-15,15s6.716,15,15,15h15.681    c-0.442,4.943-0.681,9.943-0.681,15c0,19.555,12.541,36.228,30,42.42V406c0,8.284,6.716,15,15,15s15-6.716,15-15v-45h30v15    c0,8.284,6.716,15,15,15s15-6.716,15-15v-15h30v45c0,8.284,6.716,15,15,15s15-6.716,15-15v-45h30v15c0,8.284,6.716,15,15,15    s15-6.716,15-15v-15h30v45c0,8.284,6.716,15,15,15s15-6.716,15-15v-47.58c17.459-6.192,30-22.865,30-42.42    c0-5.056-0.239-10.057-0.681-15H497c8.284,0,15-6.716,15-15S505.284,271,497,271z M90,105c0,8.271-6.729,15-15,15H30V30h45    c8.271,0,15,6.729,15,15V105z M257,90H120V60h137c41.355,0,75,33.645,75,75v15.693c-4.942-0.45-9.943-0.693-15-0.693    s-10.058,0.243-15,0.693V135C302,110.187,281.813,90,257,90z M317,180c58.79,0,108.915,38.058,127.395,91h-254.79    C208.085,218.058,258.21,180,317,180z M437,331H197c-8.271,0-15-6.729-15-15c0-5.07,0.286-10.073,0.825-15h268.35    c0.539,4.927,0.825,9.93,0.825,15C452,324.271,445.271,331,437,331z" fill="#FFFFFF"/>
	</g>
</g>
<g>
	<g>
		<path d="M257,421c-8.284,0-15,6.716-15,15v61c0,8.284,6.716,15,15,15s15-6.716,15-15v-61C272,427.716,265.284,421,257,421z" fill="#FFFFFF"/>
	</g>
</g>
<g>
	<g>
		<path d="M197,451c-8.284,0-15,6.716-15,15v31c0,8.284,6.716,15,15,15s15-6.716,15-15v-31C212,457.716,205.284,451,197,451z" fill="#FFFFFF"/>
	</g>
</g>
<g>
	<g>
		<path d="M317,451c-8.284,0-15,6.716-15,15v31c0,8.284,6.716,15,15,15s15-6.716,15-15v-31C332,457.716,325.284,451,317,451z" fill="#FFFFFF"/>
	</g>
</g>
<g>
	<g>
		<path d="M437,451c-8.284,0-15,6.716-15,15v31c0,8.284,6.716,15,15,15s15-6.716,15-15v-31C452,457.716,445.284,451,437,451z" fill="#FFFFFF"/>
	</g>
</g>
<g>
	<g>
		<path d="M377,421c-8.284,0-15,6.716-15,15v61c0,8.284,6.716,15,15,15s15-6.716,15-15v-61C392,427.716,385.284,421,377,421z" fill="#FFFFFF"/>
	</g>
</g>
<g>
</g>
<g>
</g>
<g>
</g>
<g>
</g>
<g>
</g>
<g>
</g>
<g>
</g>
<g>
</g>
<g>
</g>
<g>
</g>
<g>
</g>
<g>
</g>
<g>
</g>
<g>
</g>
<g>
</g>
</svg>
