<?xml version="1.0" encoding="iso-8859-1"?>
<!-- Generator: Adobe Illustrator 19.0.0, SVG Export Plug-In . SVG Version: 6.00 Build 0)  -->
<svg xmlns="http://www.w3.org/2000/svg" xmlns:xlink="http://www.w3.org/1999/xlink" version="1.1" id="Capa_1" x="0px" y="0px" viewBox="0 0 512 512" style="enable-background:new 0 0 512 512;" xml:space="preserve" width="512px" height="512px">
<g>
	<g>
		<path d="M409.6,443.733H102.4c-4.71,0-8.533,3.823-8.533,8.533v51.2c0,4.71,3.823,8.533,8.533,8.533h307.2    c4.71,0,8.533-3.823,8.533-8.533v-51.2C418.133,447.556,414.31,443.733,409.6,443.733z M401.067,494.933H110.933V460.8h290.133    V494.933z" fill="#FFFFFF"/>
	</g>
</g>
<g>
	<g>
		<path d="M384,153.6H128c-18.825,0-34.133,15.309-34.133,34.133s15.309,34.133,34.133,34.133h256    c18.825,0,34.133-15.309,34.133-34.133S402.825,153.6,384,153.6z M384,204.8H128c-9.412,0-17.067-7.654-17.067-17.067    s7.654-17.067,17.067-17.067h256c9.412,0,17.067,7.654,17.067,17.067S393.412,204.8,384,204.8z" fill="#FFFFFF"/>
	</g>
</g>
<g>
	<g>
		<path d="M256,34.133c-70.579,0-128,57.421-128,128c0,4.71,3.823,8.533,8.533,8.533h238.933c4.71,0,8.533-3.823,8.533-8.533    C384,91.554,326.579,34.133,256,34.133z M145.391,153.6C149.76,96.401,197.7,51.2,256,51.2s106.24,45.201,110.609,102.4H145.391z" fill="#FFFFFF"/>
	</g>
</g>
<g>
	<g>
		<path d="M375.467,204.8H136.533c-4.71,0-8.533,3.823-8.533,8.533v238.933c0,4.71,3.823,8.533,8.533,8.533h238.933    c4.71,0,8.533-3.823,8.533-8.533V213.333C384,208.623,380.177,204.8,375.467,204.8z M366.933,443.733H145.067V221.867h221.867    V443.733z" fill="#FFFFFF"/>
	</g>
</g>
<g>
	<g>
		<path d="M256,0c-18.825,0-34.133,15.309-34.133,34.133v11.349c0,2.586,1.169,5.026,3.183,6.647    c2.005,1.621,4.642,2.236,7.168,1.69c15.949-3.473,31.616-3.473,47.565,0c0.606,0.137,1.212,0.196,1.818,0.196    c1.929,0,3.823-0.657,5.35-1.886c2.014-1.621,3.183-4.062,3.183-6.647V34.133C290.133,15.309,274.825,0,256,0z M273.067,35.311    c-5.726-0.785-11.435-1.178-17.067-1.178c-5.632,0-11.341,0.393-17.067,1.178v-1.178c0-9.412,7.654-17.067,17.067-17.067    c9.412,0,17.067,7.654,17.067,17.067V35.311z" fill="#FFFFFF"/>
	</g>
</g>
<g>
	<g>
		<path d="M136.533,264.533H102.4c-4.71,0-8.533,3.823-8.533,8.533v119.467c0,4.71,3.823,8.533,8.533,8.533h34.133    c4.71,0,8.533-3.823,8.533-8.533V273.067C145.067,268.356,141.244,264.533,136.533,264.533z M128,384h-17.067V281.6H128V384z" fill="#FFFFFF"/>
	</g>
</g>
<g>
	<g>
		<path d="M102.4,290.133H68.267c-4.71,0-8.533,3.823-8.533,8.533v68.267c0,4.71,3.823,8.533,8.533,8.533H102.4    c4.71,0,8.533-3.823,8.533-8.533v-68.267C110.933,293.956,107.11,290.133,102.4,290.133z M93.867,358.4H76.8v-51.2h17.067V358.4z" fill="#FFFFFF"/>
	</g>
</g>
<g>
	<g>
		<path d="M409.6,264.533h-34.133c-4.71,0-8.533,3.823-8.533,8.533v119.467c0,4.71,3.823,8.533,8.533,8.533H409.6    c4.71,0,8.533-3.823,8.533-8.533V273.067C418.133,268.356,414.31,264.533,409.6,264.533z M401.067,384H384V281.6h17.067V384z" fill="#FFFFFF"/>
	</g>
</g>
<g>
	<g>
		<path d="M443.733,290.133H409.6c-4.71,0-8.533,3.823-8.533,8.533v68.267c0,4.71,3.823,8.533,8.533,8.533h34.133    c4.71,0,8.533-3.823,8.533-8.533v-68.267C452.267,293.956,448.444,290.133,443.733,290.133z M435.2,358.4h-17.067v-51.2H435.2    V358.4z" fill="#FFFFFF"/>
	</g>
</g>
<g>
	<g>
		<path d="M348.792,328.653l-42.667-76.8c-1.502-2.705-4.361-4.386-7.458-4.386h-85.333c-3.098,0-5.956,1.681-7.458,4.386    l-42.667,76.8c-1.434,2.586-1.434,5.717,0,8.294l42.667,76.8c1.502,2.705,4.361,4.386,7.458,4.386h85.333    c3.098,0,5.956-1.681,7.458-4.386l42.667-76.8C350.225,334.362,350.225,331.23,348.792,328.653z M293.641,401.067h-75.29    L180.429,332.8l37.922-68.267h75.29l37.922,68.267L293.641,401.067z" fill="#FFFFFF"/>
	</g>
</g>
<g>
	<g>
		<path d="M309.751,328.653l-23.706-42.667c-1.502-2.705-4.36-4.386-7.458-4.386h-45.167c-3.106,0-5.956,1.681-7.467,4.386    l-23.706,42.667c-1.434,2.586-1.434,5.717,0,8.294l23.706,42.667c1.502,2.705,4.361,4.386,7.458,4.386h45.167    c3.106,0,5.956-1.681,7.467-4.386l23.706-42.667C311.185,334.362,311.185,331.23,309.751,328.653z M273.562,366.933h-35.123    L219.477,332.8l18.961-34.133h35.123l18.961,34.133L273.562,366.933z" fill="#FFFFFF"/>
	</g>
</g>
<g>
	<g>
		<path d="M153.6,477.867c-4.71,0-8.533,3.823-8.533,8.533v17.067c0,4.71,3.823,8.533,8.533,8.533c4.71,0,8.533-3.823,8.533-8.533    V486.4C162.133,481.69,158.31,477.867,153.6,477.867z" fill="#FFFFFF"/>
	</g>
</g>
<g>
	<g>
		<path d="M204.8,477.867c-4.71,0-8.533,3.823-8.533,8.533v17.067c0,4.71,3.823,8.533,8.533,8.533s8.533-3.823,8.533-8.533V486.4    C213.333,481.69,209.51,477.867,204.8,477.867z" fill="#FFFFFF"/>
	</g>
</g>
<g>
	<g>
		<path d="M256,477.867c-4.71,0-8.533,3.823-8.533,8.533v17.067c0,4.71,3.823,8.533,8.533,8.533c4.71,0,8.533-3.823,8.533-8.533    V486.4C264.533,481.69,260.71,477.867,256,477.867z" fill="#FFFFFF"/>
	</g>
</g>
<g>
	<g>
		<path d="M307.2,477.867c-4.71,0-8.533,3.823-8.533,8.533v17.067c0,4.71,3.823,8.533,8.533,8.533s8.533-3.823,8.533-8.533V486.4    C315.733,481.69,311.91,477.867,307.2,477.867z" fill="#FFFFFF"/>
	</g>
</g>
<g>
	<g>
		<path d="M358.4,477.867c-4.71,0-8.533,3.823-8.533,8.533v17.067c0,4.71,3.823,8.533,8.533,8.533s8.533-3.823,8.533-8.533V486.4    C366.933,481.69,363.11,477.867,358.4,477.867z" fill="#FFFFFF"/>
	</g>
</g>
<g>
</g>
<g>
</g>
<g>
</g>
<g>
</g>
<g>
</g>
<g>
</g>
<g>
</g>
<g>
</g>
<g>
</g>
<g>
</g>
<g>
</g>
<g>
</g>
<g>
</g>
<g>
</g>
<g>
</g>
</svg>
