<?xml version="1.0" encoding="iso-8859-1"?>
<!-- Generator: Adobe Illustrator 19.0.0, SVG Export Plug-In . SVG Version: 6.00 Build 0)  -->
<svg xmlns="http://www.w3.org/2000/svg" xmlns:xlink="http://www.w3.org/1999/xlink" version="1.1" id="Capa_1" x="0px" y="0px" viewBox="0 0 507.403 507.403" style="enable-background:new 0 0 507.403 507.403;" xml:space="preserve" width="512px" height="512px">
<g>
	<g>
		<g>
			<rect x="135.451" y="152.932" transform="matrix(0.8107 0.5855 -0.5855 0.8107 127.5888 -56.6917)" width="32" height="32" fill="#FFFFFF"/>
			<path d="M405.581,210.352v-0.048L253.709,0l-87.12,120.656l25.936,18.672l61.184-84.672l125.936,174.4     c50.23,69.553,34.566,166.656-34.986,216.886c-69.552,50.23-166.656,34.566-216.886-34.986     c-39.211-54.294-39.211-127.606,0-181.9l8.528-11.808l-25.936-18.72l-8.528,11.824c-60.582,83.877-41.698,200.983,42.178,261.566     c83.877,60.582,200.983,41.698,261.566-42.178C452.876,364.257,452.876,275.834,405.581,210.352z" fill="#FFFFFF"/>
			<path d="M136.909,280.256l30.32,10.288c2.928-8.579,7.13-16.67,12.464-24l-26-18.832     C146.51,257.665,140.853,268.634,136.909,280.256z" fill="#FFFFFF"/>
			<path d="M130.317,316.304v3.664c0.169,68.298,55.672,123.527,123.97,123.358c12.281-0.03,24.489-1.89,36.222-5.518l-9.6-30.544     c-48.269,14.996-99.556-11.978-114.552-60.247c-2.721-8.759-4.11-17.877-4.12-27.049v-2.736L130.317,316.304z" fill="#FFFFFF"/>
		</g>
	</g>
</g>
<g>
</g>
<g>
</g>
<g>
</g>
<g>
</g>
<g>
</g>
<g>
</g>
<g>
</g>
<g>
</g>
<g>
</g>
<g>
</g>
<g>
</g>
<g>
</g>
<g>
</g>
<g>
</g>
<g>
</g>
</svg>
