<?xml version="1.0" encoding="iso-8859-1"?>
<!-- Generator: Adobe Illustrator 19.0.0, SVG Export Plug-In . SVG Version: 6.00 Build 0)  -->
<svg xmlns="http://www.w3.org/2000/svg" xmlns:xlink="http://www.w3.org/1999/xlink" version="1.1" id="Layer_1" x="0px" y="0px" viewBox="0 0 512.005 512.005" style="enable-background:new 0 0 512.005 512.005;" xml:space="preserve" width="512px" height="512px">
<g>
	<g>
		<g>
			<path d="M263.148,2.766c-4.042-3.688-10.25-3.688-14.292,0c-7.563,6.823-184.854,168.875-184.854,317.24     c0,105.865,86.125,192,192,192s192-86.135,192-192C448.003,171.641,270.711,9.589,263.148,2.766z M256.003,490.672     c-94.104,0-170.667-76.563-170.667-170.667c0-122.708,137.438-262.646,170.667-294.667     c33.229,32.01,170.667,171.865,170.667,294.667C426.669,414.109,350.107,490.672,256.003,490.672z" fill="#FFFFFF"/>
			<path d="M256.003,426.672c-58.812,0-106.667-47.854-106.667-106.667c0-5.896-4.771-10.667-10.667-10.667     c-5.896,0-10.667,4.771-10.667,10.667c0,70.583,57.417,128,128,128c5.896,0,10.667-4.771,10.667-10.667     C266.669,431.443,261.898,426.672,256.003,426.672z" fill="#FFFFFF"/>
		</g>
	</g>
</g>
<g>
</g>
<g>
</g>
<g>
</g>
<g>
</g>
<g>
</g>
<g>
</g>
<g>
</g>
<g>
</g>
<g>
</g>
<g>
</g>
<g>
</g>
<g>
</g>
<g>
</g>
<g>
</g>
<g>
</g>
</svg>
